<?xml version="1.0" ?><svg data-name="Layer 13" id="Layer_13" viewBox="0 0 50 50" xmlns="http://www.w3.org/2000/svg"><defs><style>.cls-1{fill:#010101;}</style></defs><title/><path class="cls-1" d="M37.7,21l-1.7.2V18a2,2,0,0,0-2-2H4a2,2,0,0,0-2,2V36.8A11.2,11.2,0,0,0,13.2,48H24.8a11.2,11.2,0,0,0,10.5-7.3L37.7,41A10,10,0,1,0,37.7,21ZM32,36.8A7.2,7.2,0,0,1,24.8,44H13.2A7.2,7.2,0,0,1,6,36.8V20H32V36.8ZM37.7,37L36,36.8V25.2l1.7-.2A6,6,0,1,1,37.7,37Z"/><path class="cls-1" d="M10,14a2,2,0,0,0,2-2V4A2,2,0,0,0,8,4v8A2,2,0,0,0,10,14Z"/><path class="cls-1" d="M19,14a2,2,0,0,0,2-2V4a2,2,0,0,0-4,0v8A2,2,0,0,0,19,14Z"/><path class="cls-1" d="M28,14a2,2,0,0,0,2-2V4a2,2,0,0,0-4,0v8A2,2,0,0,0,28,14Z"/></svg>